<svg width="20" height="20" viewBox="0 0 20 20" fill="none" xmlns="http://www.w3.org/2000/svg">
<path d="M9.55793 5.58063L11.1047 4.03383C11.4239 3.71439 11.8028 3.46095 12.22 3.288C12.6371 3.11505 13.0842 3.02598 13.5357 3.02588C13.9873 3.02577 14.4344 3.11464 14.8516 3.28739C15.2688 3.46014 15.6479 3.7134 15.9672 4.0327C16.2865 4.352 16.5398 4.73107 16.7125 5.14827C16.8853 5.56548 16.9741 6.01263 16.974 6.46418C16.9739 6.91573 16.8849 7.36284 16.7119 7.77996C16.539 8.19708 16.2855 8.57604 15.9661 8.89519L13.7564 11.1049C13.4372 11.4241 13.0582 11.6773 12.6412 11.8501C12.2241 12.0228 11.7771 12.1117 11.3257 12.1117C10.8743 12.1117 10.4273 12.0228 10.0102 11.8501C9.59317 11.6773 9.21422 11.4241 8.89502 11.1049" stroke="white" stroke-width="1.2" stroke-linecap="round" stroke-linejoin="round"/>
<path d="M10.442 14.4195L8.89519 15.9663C8.57604 16.2858 8.19708 16.5392 7.77996 16.7121C7.36284 16.8851 6.91573 16.9742 6.46418 16.9743C6.01263 16.9744 5.56548 16.8855 5.14827 16.7128C4.73107 16.54 4.352 16.2867 4.0327 15.9674C3.7134 15.6482 3.46014 15.2691 3.28739 14.8519C3.11464 14.4347 3.02577 13.9875 3.02588 13.536C3.02598 13.0844 3.11505 12.6373 3.288 12.2202C3.46095 11.8031 3.71439 11.4241 4.03383 11.105L6.24354 8.89525C6.56274 8.57605 6.94169 8.32284 7.35875 8.15009C7.7758 7.97734 8.2228 7.88843 8.67422 7.88843C9.12564 7.88843 9.57264 7.97734 9.98969 8.15009C10.4068 8.32284 10.7857 8.57605 11.1049 8.89525" stroke="white" stroke-width="1.2" stroke-linecap="round" stroke-linejoin="round"/>
</svg>
